<svg xmlns="http://www.w3.org/2000/svg" xmlns:xlink="http://www.w3.org/1999/xlink" xml:space="preserve" width="860" height="211" style="shape-rendering: geometricprecision; text-rendering: geometricprecision; fill-rule: evenodd; clip-rule: evenodd;"><rect id="backgroundrect" width="100%" height="100%" x="0" y="0" fill="none" stroke="none" class="" style=""/>
 <defs>
  <style type="text/css">
   <![CDATA[
    .fil3 {fill:#373435}
    .fil2 {fill:#373435}
    .fil1 {fill:black}
    .fil0 {fill:white}
   ]]>
  </style>
 </defs>
 
<g class="currentLayer" style=""><title>Layer 1</title><g id="Layer_x0020_1" class="">
  <metadata id="CorelCorpID_0Corel-Layer" transform="translate(18,-2) translate(0,-12) translate(-0.577068567276001,0) scale(0.5473776459693909) translate(0.577068567276001,0) translate(-1.0542230606079102,-21.92272186279297) scale(0.4230983853340149) translate(1.0542230606079102,21.92272186279297) translate(-2.491694927215576,-51.81470489501953) scale(0.7909274697303772) translate(2.491694927215576,51.81470489501953) translate(-3.150308609008789,-65.51131439208984) scale(0.8242020606994629) translate(3.150308609008789,65.51131439208984) translate(-3.822232484817505,-79.48453521728516) scale(1) translate(3.822232484817505,79.48453521728516) translate(-3.822232484817505,-79.48453521728516) scale(0.7316041588783264) translate(3.822232484817505,79.48453521728516) "/>
  <g id="_479134080">
   <path class="fil0" d="M708.0347491962453,192.7667879422105 l0,-100.29073056628914 c0,-5.633069668370867 0.9940711179477999,-13.916995651269202 -1.435880503702378,-18.776898894569555 c-4.307641511107134,-8.173473636459688 -21.427755209097022,-10.382520565232577 -30.153490577749935,-10.382520565232577 l0,100.4011829127278 c0,4.9703555897389995 -0.9940711179477999,14.579709729901069 1.5463328501410223,18.66644654813091 c4.9703555897389995,8.173473636459688 21.20685051621973,10.492972911671224 30.043038231311286,10.492972911671224 z" id="svg_1"/>
   <path class="fil0" d="M146.60547224861548,13.171272632974645 l-129.0083406403367,-0.11045234643864443 c0.11045234643864443,28.05489599541569 0,55.99933964439274 0,84.05423563980843 l0,62.73693277715004 c0,5.633069668370867 -0.9940711179477999,14.690162076339712 1.7672375430183114,19.550065319640066 c5.080807936177646,8.836187715091556 20.985945823342444,11.707948722496312 30.26394292418858,11.707948722496312 l63.068289816465985,0 c5.9644267076868,0 13.806543304830555,0.6627140786318666 19.439612973201424,-1.5463328501410223 c10.492972911671224,-4.1971891646684885 14.579709729901069,-17.230566044428535 14.690162076339712,-27.72353895609976 l-87.47825837940641,0 l0,-49.81400824382865 c4.528546203984422,0 51.91260282616289,0.22090469287728906 54.78436383356764,-0.11045234643864443 c18.555994201692272,-2.0985945823342442 22.75318336636076,-15.352876154971579 22.75318336636076,-32.69389454583875 c-3.313570393159333,0.3313570393159334 -7.621211904266467,2.0985945823342442 -17.451470737305826,2.8717610074047557 c-16.01559023360344,1.2149758108250894 -43.297319803948625,0.5522617321932224 -60.086076462622586,0.6627140786318666 l0,-40.20465410366658 c12.591567494005467,-0.6627140786318666 36.33882197831402,0 50.91853170821509,0 c5.5226173219322225,0 10.934782297425802,-0.11045234643864443 16.45739961935802,-0.11045234643864443 c13.806543304830555,-3.5344750860366223 19.108255933885488,-14.469257383462423 19.881422358955998,-29.269871806240776 z" id="svg_2"/>
   <path class="fil0" d="M809.8718126126755,167.47320060776093 c-13.806543304830555,6.848045479195955 -49.151294165196774,8.394378329336977 -44.62274796121236,-15.242423808532934 c2.540403968088822,-13.475186265514623 22.09046928772889,-14.027447997707846 34.24022739597978,-17.8932801230604 c8.615283022214268,-2.6508563145274673 8.394378329336977,-5.5226173219322225 10.492972911671224,-6.406236093441379 l-0.11045234643864443,39.43148767859607 zm-64.39371797372971,-55.00526852644494 c2.0985945823342442,-4.086736818229844 -0.3313570393159334,-9.057092407968844 7.621211904266467,-17.12011369798989 c4.307641511107134,-4.307641511107134 10.382520565232577,-6.737593132757311 16.236494926480738,-8.173473636459688 c10.382520565232577,-2.429951621650178 31.8102757743296,-4.086736818229844 38.106059521332334,6.848045479195955 c12.481115147566822,21.648659901974312 -38.437416560648266,18.776898894569555 -59.644267076868,33.90887035666385 c-11.15568699030309,7.9525689435824 -15.9051378871648,20.544136437587866 -13.69609095839191,34.12977504954113 c2.209046928772889,13.364733919075979 9.167544754407489,21.759112248412954 21.53820755553567,27.060824877467887 c24.741325602256357,10.492972911671224 46.50043785066931,0.8836187715091557 64.28326562729107,0.5522617321932224 c9.057092407968844,-0.22090469287728906 12.370662801128178,0.5522617321932224 20.654588784026515,3.644927432475267 c0.11045234643864443,-24.52042090937907 0,-48.93038947231949 0,-73.45081038169856 c0,-21.98001694129025 1.8776898894569558,-39.65239237147336 -21.98001694129025,-51.581245786846964 c-24.299516216501775,-12.039305761812244 -94.76811324435693,-8.725735368652913 -79.52568943582399,32.472989852961476 c1.9881422358955998,5.301712629054933 5.633069668370867,10.051163525916644 6.295783747002734,11.818401068934957 z" id="svg_3"/>
   <path class="fil0" d="M326.7532492900446,115.891954820914 c-0.44180938575457834,-4.638998550423067 0,-13.475186265514623 1.1045234643864446,-18.00373246949905 c4.9703555897389995,-18.445541855253623 30.816204656381803,-14.13790034414649 37.55379778913911,-6.958497825634601 c4.1971891646684885,4.418093857545778 7.842116597143755,20.323231744710576 -5.743522014809511,25.29358733444958 c-7.9525689435824,2.8717610074047557 -26.950372531029245,2.209046928772889 -33.02525158515469,-0.3313570393159334 zm68.92226417771414,29.932585884872648 c-0.11045234643864443,0.11045234643864443 -0.22090469287728906,0.11045234643864443 -0.22090469287728906,0.3313570393159334 l-1.6567851965796672,5.5226173219322225 c-8.173473636459688,20.10232705183329 -50.25581762958323,22.75318336636076 -61.08014758057039,11.818401068934957 c-6.958497825634601,-7.068950172073245 -6.074879054125444,-14.579709729901069 -6.074879054125444,-24.741325602256357 c6.074879054125444,0.11045234643864443 8.836187715091556,4.7494508968617115 29.932585884872648,3.8658321253525556 c18.224637162376332,-0.773166425070511 36.891083710507246,-8.394378329336977 42.41370103243946,-27.171277223906532 c2.7613086609661113,-9.498901793723423 2.3194992752115335,-21.096398169781093 -1.7672375430183114,-30.153490577749935 c-8.394378329336977,-18.445541855253623 -28.38625303473162,-22.421826327044823 -46.610890197107956,-23.194992752115336 c-9.277997100846134,-0.44180938575457834 -21.20685051621973,1.5463328501410223 -29.932585884872648,4.859903243300356 c-8.173473636459688,3.0926657002820446 -14.800614422778356,8.283925982898333 -19.550065319640066,15.573780847848864 c-5.853974361248156,9.057092407968844 -5.9644267076868,18.445541855253623 -5.9644267076868,28.828062420486198 c0,11.597496376057668 0,23.194992752115336 0,34.682036781734354 c0,10.492972911671224 0.5522617321932224,19.108255933885488 6.848045479195955,27.944443648977042 c16.236494926480738,22.421826327044823 58.09793422672698,23.96815917718584 80.18840351445587,15.242423808532934 c8.063021290021045,-3.2031180467206886 15.021519115655646,-8.063021290021045 18.555994201692272,-16.236494926480738 c4.418093857545778,-10.161615872355288 -0.5522617321932224,-18.445541855253623 -5.191260282616288,-27.060824877467887 z" id="svg_4"/>
   <path class="fil0" d="M458.964707977102,88.94158228988472 c3.313570393159333,-1.5463328501410223 16.01559023360344,-3.313570393159333 20.10232705183329,-3.4240227395979774 c6.737593132757311,-0.22090469287728906 14.13790034414649,0 19.77097001251736,3.8658321253525556 c5.853974361248156,3.8658321253525556 7.068950172073245,9.940711179477999 7.068950172073245,16.567851965796667 c0.11045234643864443,7.9525689435824 0,15.794685540726157 0,23.74725448430856 c0,7.9525689435824 0,15.794685540726157 0,23.74725448430856 c0,7.068950172073245 -0.5522617321932224,17.009661351551248 0,23.74725448430856 c0.6627140786318666,6.958497825634601 5.633069668370867,9.940711179477999 11.597496376057668,12.149758108250888 c5.633069668370867,2.0985945823342442 13.916995651269202,3.4240227395979774 19.991874705394643,3.5344750860366223 c0,-3.644927432475267 0.44180938575457834,-88.91413888310876 -0.22090469287728906,-94.43675620504101 c-1.1045234643864446,-9.830258833039355 -2.7613086609661113,-14.579709729901069 -9.057092407968844,-22.200921634167532 c-9.388449447284778,-11.487044029619023 -34.019322703102496,-15.352876154971579 -48.26767539368762,-13.806543304830555 c-9.057092407968844,0.9940711179477999 -17.8932801230604,3.8658321253525556 -26.950372531029245,4.638998550423067 c-11.707948722496312,0.9940711179477999 -16.01559023360344,-1.2149758108250894 -25.956301413081444,-4.638998550423067 l0,101.3952540306756 c0,4.638998550423067 -0.8836187715091557,15.13197146209429 1.5463328501410223,18.776898894569555 c5.5226173219322225,8.615283022214268 26.287658452397377,11.15568699030309 30.153490577749935,10.161615872355288 l0.11045234643864443,-103.71475330588716 z" id="svg_5"/>
   <g id="svg_6">
    <path class="fil0" d="M707.813844503368,13.502629672290574 l-23.526349791431265,0 c-3.0926657002820446,-0.9940711179477999 -6.074879054125444,-3.2031180467206886 -7.400307211389178,-7.068950172073245 l0,-20.43368409114922 l23.526349791431265,0 c3.0926657002820446,0.9940711179477999 6.074879054125444,3.2031180467206886 7.400307211389178,7.068950172073245 l0,20.43368409114922 z" id="svg_7"/>
    <g id="svg_8">
     <path class="fil1" d="M676.8871875005476,-11.45960062284307 c12.812472186882754,0.8836187715091557 24.078611523624488,4.307641511107134 30.926657002820445,24.52042090937907 c0.11045234643864443,-8.615283022214268 -4.418093857545778,-27.060824877467887 -30.926657002820445,-27.060824877467887 l0,2.540403968088822 z" id="svg_9"/>
     <path class="fil1" d="M676.8871875005476,-6.157887993788134 c12.922924533321398,0.44180938575457834 19.66051766607871,5.301712629054933 30.926657002820445,19.66051766607871 c-3.7553797789139116,-7.9525689435824 -12.812472186882754,-22.8636357127994 -30.926657002820445,-22.200921634167532 l0,2.540403968088822 z" id="svg_10"/>
     <path class="fil1" d="M676.8871875005476,-0.9666277111718449 c10.272068218793933,-0.5522617321932224 16.678304312235312,3.7553797789139116 30.59529996350451,14.358805037023778 c-5.9644267076868,-6.185331400564089 -13.364733919075979,-17.341018390867177 -30.59529996350451,-16.8992090051126 l0,2.540403968088822 z" id="svg_11"/>
    </g>
   </g>
   <g id="svg_12">
    <path class="fil1" d="M133.35119067597816,12.950367940097355 l-4.859903243300356,0 c1.3254281572637336,9.277997100846134 0.22090469287728906,18.8873512410082 -3.313570393159333,29.49077649911807 c4.1971891646684885,-4.638998550423067 8.836187715091556,-14.911066769217 8.173473636459688,-29.49077649911807 z" id="svg_13"/>
    <path class="fil1" d="M142.07692604463108,12.950367940097355 l-4.638998550423067,0 c-0.11045234643864443,14.579709729901069 -4.086736818229844,21.317302862658376 -11.597496376057668,29.49077649911807 c8.504830675775624,-3.7553797789139116 15.352876154971579,-14.027447997707846 16.236494926480738,-29.49077649911807 z" id="svg_14"/>
    <path class="fil1" d="M125.0672646930798,12.950367940097355 l-4.859903243300356,0 c2.209046928772889,7.289854864950534 5.633069668370867,18.445541855253623 4.1971891646684885,29.49077649911807 c3.0926657002820446,-7.289854864950534 1.9881422358955998,-20.654588784026515 0.6627140786318666,-29.49077649911807 z" id="svg_15"/>
   </g>
   <path class="fil0" d="M159.74930147481416,63.316637916119234 c0,6.074879054125444 1.5463328501410223,15.68423319428751 2.3194992752115335,21.98001694129025 c2.7613086609661113,23.305445098553978 2.3194992752115335,37.33289309626182 11.818401068934957,59.75471942330664 c7.621211904266467,18.00373246949905 18.00373246949905,28.05489599541569 31.03710934925909,40.97782052873709 c1.6567851965796672,1.6567851965796672 12.149758108250888,10.051163525916644 13.806543304830555,9.830258833039355 c1.8776898894569558,-0.11045234643864443 12.039305761812244,-8.504830675775624 13.916995651269202,-10.272068218793933 c12.70201984044411,-11.597496376057668 23.8577068307472,-24.741325602256357 30.705752309943158,-40.97782052873709 c9.498901793723423,-22.421826327044823 9.167544754407489,-36.449274324752665 12.039305761812244,-59.865171769745295 c0.773166425070511,-6.516688439880022 2.209046928772889,-15.242423808532934 2.3194992752115335,-21.53820755553567 c-9.277997100846134,0.11045234643864443 -24.63087325581771,2.3194992752115335 -30.374395270627222,9.830258833039355 c-2.8717610074047557,3.644927432475267 -2.8717610074047557,11.707948722496312 -3.644927432475267,16.567851965796667 c-0.8836187715091557,5.633069668370867 -1.6567851965796672,11.9288534153736 -2.3194992752115335,17.561923083744468 c-1.8776898894569558,17.8932801230604 -4.859903243300356,31.258014042136377 -13.806543304830555,46.38998550423067 c-1.2149758108250894,2.0985945823342442 -6.848045479195955,9.830258833039355 -9.057092407968844,10.603425258109866 c-7.400307211389178,-6.516688439880022 -12.039305761812244,-14.911066769217 -15.68423319428751,-24.189063870063134 c-5.301712629054933,-13.475186265514623 -6.958497825634601,-35.23429851392758 -9.167544754407489,-50.80807936177644 c-0.6627140786318666,-4.7494508968617115 -0.8836187715091557,-12.591567494005467 -3.644927432475267,-16.12604258004209 c-5.743522014809511,-7.400307211389178 -20.985945823342444,-9.830258833039355 -30.043038231311286,-9.830258833039355 z" id="svg_16"/>
   <g id="svg_17">
    <path class="fil2" d="M194.7626952958645,90.8192721793417 l0.44180938575457834,5.412164975493578 c-10.382520565232577,-1.2149758108250894 -20.8754934769038,1.5463328501410223 -32.141632813645536,6.848045479195955 c5.080807936177646,-5.080807936177646 15.68423319428751,-11.15568699030309 31.699823427890962,-12.149758108250888 z" id="svg_18"/>
    <path class="fil1" d="M193.9895288707939,82.31444150356607 l0.44180938575457834,5.080807936177646 c-16.01559023360344,1.435880503702378 -23.636802137869914,4.7494508968617115 -31.36846638857502,14.800614422778356 c3.4240227395979774,-9.719806486600712 14.027447997707846,-17.561923083744468 30.926657002820445,-19.881422358955998 z" id="svg_19"/>
    <path class="fil2" d="M195.4254093744963,99.3241028551173 l0.44180938575457834,5.412164975493578 c-8.394378329336977,-2.0985945823342442 -21.427755209097022,-2.3194992752115335 -34.019322703102496,-0.44180938575457834 c8.394378329336977,-3.313570393159333 19.439612973201424,-6.185331400564089 33.57751331734791,-4.9703555897389995 z" id="svg_20"/>
   </g>
   <g id="svg_21">
    <path class="fil3" d="M242.58856130379755,90.8192721793417 l-0.44180938575457834,5.412164975493578 c10.382520565232577,-1.2149758108250894 20.8754934769038,1.5463328501410223 32.141632813645536,6.848045479195955 c-5.080807936177646,-5.080807936177646 -15.68423319428751,-11.15568699030309 -31.699823427890962,-12.149758108250888 z" id="svg_22"/>
    <path class="fil1" d="M243.36172772886806,82.31444150356607 l-0.44180938575457834,5.080807936177646 c16.01559023360344,1.435880503702378 23.636802137869914,4.7494508968617115 31.36846638857502,14.800614422778356 c-3.4240227395979774,-9.719806486600712 -14.027447997707846,-17.561923083744468 -30.926657002820445,-19.881422358955998 z" id="svg_23"/>
    <path class="fil3" d="M242.03629957160425,99.3241028551173 l-0.44180938575457834,5.412164975493578 c8.394378329336977,-2.0985945823342442 21.427755209097022,-2.3194992752115335 34.019322703102496,-0.44180938575457834 c-8.394378329336977,-3.313570393159333 -19.439612973201424,-6.185331400564089 -33.57751331734791,-4.9703555897389995 z" id="svg_24"/>
   </g>
   <path class="fil0" d="M598.9078309148643,94.68510430469425 c8.283925982898333,-0.6627140786318666 30.926657002820445,0.773166425070511 36.11791728543673,-0.6627140786318666 c9.719806486600712,-2.6508563145274673 13.69609095839191,-13.806543304830555 13.806543304830555,-23.194992752115336 l-49.92446059026729,-0.11045234643864443 c-0.44180938575457834,-9.940711179477999 1.435880503702378,-16.567851965796667 -6.848045479195955,-23.305445098553978 c-6.185331400564089,-5.080807936177646 -16.45739961935802,-6.185331400564089 -24.63087325581771,-6.074879054125444 l0,95.09947028367289 c0,11.707948722496312 -1.1045234643864446,22.8636357127994 3.9762844717911996,34.019322703102496 c3.8658321253525556,8.394378329336977 11.15568699030309,14.911066769217 19.439612973201424,18.555994201692272 c20.10232705183329,8.836187715091556 61.632409312763606,7.400307211389178 69.25362121703007,-15.68423319428751 c3.8658321253525556,-11.818401068934957 -1.7672375430183114,-19.108255933885488 -8.063021290021045,-27.833991302538404 c-1.1045234643864446,1.2149758108250894 -0.773166425070511,2.0985945823342442 -1.1045234643864446,4.307641511107134 c-3.4240227395979774,23.084540405676687 -34.35067974241842,24.63087325581771 -45.94817611847609,15.463328501410222 c-7.621211904266467,-5.9644267076868 -6.185331400564089,-23.636802137869914 -6.185331400564089,-32.36253750652283 c0,-12.481115147566822 -0.44180938575457834,-25.845849066642796 0,-38.106059521332334 z" id="svg_25"/>
  </g>
 </g></g></svg>