<?xml version="1.0" encoding="UTF-8"?>
<!DOCTYPE svg PUBLIC "-//W3C//DTD SVG 1.1//EN" "http://www.w3.org/Graphics/SVG/1.1/DTD/svg11.dtd">
<!-- Creator: CorelDRAW X5 -->
<svg xmlns="http://www.w3.org/2000/svg" xml:space="preserve" width="7.74423in" height="1.9747in" style="shape-rendering:geometricPrecision; text-rendering:geometricPrecision; image-rendering:optimizeQuality; fill-rule:evenodd; clip-rule:evenodd"
viewBox="0 0 7453 1900"
 xmlns:xlink="http://www.w3.org/1999/xlink">
 <defs>
  <style type="text/css">
   <![CDATA[
    .fil3 {fill:#373435}
    .fil2 {fill:#373435}
    .fil1 {fill:black}
    .fil0 {fill:white}
   ]]>
  </style>
 </defs>
 <g id="Layer_x0020_1">
  <metadata id="CorelCorpID_0Corel-Layer"/>
  <g id="_479134080">
   <path class="fil0" d="M6252 1872l0 -908c0,-51 9,-126 -13,-170 -39,-74 -194,-94 -273,-94l0 909c0,45 -9,132 14,169 45,74 192,95 272,95z"/>
   <path class="fil0" d="M1169 246l-1168 -1c1,254 0,507 0,761l0 568c0,51 -9,133 16,177 46,80 190,106 274,106l571 0c54,0 125,6 176,-14 95,-38 132,-156 133,-251l-792 0 0 -451c41,0 470,2 496,-1 168,-19 206,-139 206,-296 -30,3 -69,19 -158,26 -145,11 -392,5 -544,6l0 -364c114,-6 329,0 461,0 50,0 99,-1 149,-1 125,-32 173,-131 180,-265z"/>
   <path class="fil0" d="M7174 1643c-125,62 -445,76 -404,-138 23,-122 200,-127 310,-162 78,-24 76,-50 95,-58l-1 357zm-583 -498c19,-37 -3,-82 69,-155 39,-39 94,-61 147,-74 94,-22 288,-37 345,62 113,196 -348,170 -540,307 -101,72 -144,186 -124,309 20,121 83,197 195,245 224,95 421,8 582,5 82,-2 112,5 187,33 1,-222 0,-443 0,-665 0,-199 17,-359 -199,-467 -220,-109 -858,-79 -720,294 18,48 51,91 57,107z"/>
   <path class="fil0" d="M2800 1176c-4,-42 0,-122 10,-163 45,-167 279,-128 340,-63 38,40 71,184 -52,229 -72,26 -244,20 -299,-3zm624 271c-1,1 -2,1 -2,3l-15 50c-74,182 -455,206 -553,107 -63,-64 -55,-132 -55,-224 55,1 80,43 271,35 165,-7 334,-76 384,-246 25,-86 21,-191 -16,-273 -76,-167 -257,-203 -422,-210 -84,-4 -192,14 -271,44 -74,28 -134,75 -177,141 -53,82 -54,167 -54,261 0,105 0,210 0,314 0,95 5,173 62,253 147,203 526,217 726,138 73,-29 136,-73 168,-147 40,-92 -5,-167 -47,-245z"/>
   <path class="fil0" d="M3997 932c30,-14 145,-30 182,-31 61,-2 128,0 179,35 53,35 64,90 64,150 1,72 0,143 0,215 0,72 0,143 0,215 0,64 -5,154 0,215 6,63 51,90 105,110 51,19 126,31 181,32 0,-33 4,-805 -2,-855 -10,-89 -25,-132 -82,-201 -85,-104 -308,-139 -437,-125 -82,9 -162,35 -244,42 -106,9 -145,-11 -235,-42l0 918c0,42 -8,137 14,170 50,78 238,101 273,92l1 -939z"/>
   <g>
    <path class="fil0" d="M6250 249l-213 0c-28,-9 -55,-29 -67,-64l0 -185 213 0c28,9 55,29 67,64l0 185z"/>
    <g>
     <path class="fil1" d="M5970 23c116,8 218,39 280,222 1,-78 -40,-245 -280,-245l0 23z"/>
     <path class="fil1" d="M5970 71c117,4 178,48 280,178 -34,-72 -116,-207 -280,-201l0 23z"/>
     <path class="fil1" d="M5970 118c93,-5 151,34 277,130 -54,-56 -121,-157 -277,-153l0 23z"/>
    </g>
   </g>
   <g>
    <path class="fil1" d="M1049 244l-44 0c12,84 2,171 -30,267 38,-42 80,-135 74,-267z"/>
    <path class="fil1" d="M1128 244l-42 0c-1,132 -37,193 -105,267 77,-34 139,-127 147,-267z"/>
    <path class="fil1" d="M974 244l-44 0c20,66 51,167 38,267 28,-66 18,-187 6,-267z"/>
   </g>
   <path class="fil0" d="M1288 700c0,55 14,142 21,199 25,211 21,338 107,541 69,163 163,254 281,371 15,15 110,91 125,89 17,-1 109,-77 126,-93 115,-105 216,-224 278,-371 86,-203 83,-330 109,-542 7,-59 20,-138 21,-195 -84,1 -223,21 -275,89 -26,33 -26,106 -33,150 -8,51 -15,108 -21,159 -17,162 -44,283 -125,420 -11,19 -62,89 -82,96 -67,-59 -109,-135 -142,-219 -48,-122 -63,-319 -83,-460 -6,-43 -8,-114 -33,-146 -52,-67 -190,-89 -272,-89z"/>
   <g>
    <path class="fil2" d="M1605 949l4 49c-94,-11 -189,14 -291,62 46,-46 142,-101 287,-110z"/>
    <path class="fil1" d="M1598 872l4 46c-145,13 -214,43 -284,134 31,-88 127,-159 280,-180z"/>
    <path class="fil2" d="M1611 1026l4 49c-76,-19 -194,-21 -308,-4 76,-30 176,-56 304,-45z"/>
   </g>
   <g>
    <path class="fil3" d="M2038 949l-4 49c94,-11 189,14 291,62 -46,-46 -142,-101 -287,-110z"/>
    <path class="fil1" d="M2045 872l-4 46c145,13 214,43 284,134 -31,-88 -127,-159 -280,-180z"/>
    <path class="fil3" d="M2033 1026l-4 49c76,-19 194,-21 308,-4 -76,-30 -176,-56 -304,-45z"/>
   </g>
   <path class="fil0" d="M5264 984c75,-6 280,7 327,-6 88,-24 124,-125 125,-210l-452 -1c-4,-90 13,-150 -62,-211 -56,-46 -149,-56 -223,-55l0 861c0,106 -10,207 36,308 35,76 101,135 176,168 182,80 558,67 627,-142 35,-107 -16,-173 -73,-252 -10,11 -7,19 -10,39 -31,209 -311,223 -416,140 -69,-54 -56,-214 -56,-293 0,-113 -4,-234 0,-345z"/>
  </g>
 </g>
</svg>
